<svg width="67" height="67" viewBox="0 0 67 67" fill="none" xmlns="http://www.w3.org/2000/svg">
<path d="M36.4757 66.3637H29.888C24.3959 66.3637 19.945 61.9128 19.945 56.4207V49.683C19.945 47.8826 18.4856 46.4187 16.6807 46.4187H9.94296C4.45092 46.4187 0 41.9678 0 36.4757V29.888C0 24.396 4.45092 19.945 9.94296 19.945H13.8074C15.2259 19.945 16.3761 21.0953 16.3761 22.5137C16.3761 23.9322 15.2259 25.0825 13.8074 25.0825H9.94296C7.28787 25.0825 5.13287 27.2374 5.13287 29.8925V36.4803C5.13287 39.1354 7.28787 41.2904 9.94296 41.2904H16.6807C21.318 41.2904 25.0824 45.0502 25.0824 49.6921V56.4298C25.0824 59.0849 27.2374 61.2399 29.8925 61.2399H36.4803C39.1353 61.2399 41.2903 59.0849 41.2903 56.4298V51.447C41.2903 47.2416 39.6536 43.2862 36.6803 40.3129L26.069 29.697C22.1273 25.7508 19.9541 20.5088 19.9541 14.9304V9.94296C19.9541 4.45092 24.405 0 29.8971 0H36.4848C41.9769 0 46.4278 4.45092 46.4278 9.94296V16.6807C46.4278 18.4811 47.8872 19.945 49.6921 19.945H56.4298C61.9219 19.945 66.3728 24.396 66.3728 29.888V36.4757C66.3728 41.9678 61.9219 46.4187 56.4298 46.4187H52.57C51.1515 46.4187 50.0012 45.2684 50.0012 43.85C50.0012 42.4315 51.1515 41.2813 52.57 41.2813H56.4298C59.0849 41.2813 61.2399 39.1263 61.2399 36.4712V29.8834C61.2399 27.2283 59.0849 25.0734 56.4298 25.0734H49.683C45.0457 25.0734 41.2858 21.3135 41.2858 16.6762V9.94296C41.2858 7.28787 39.1308 5.13288 36.4757 5.13288H29.888C27.2329 5.13288 25.0779 7.28332 25.0779 9.94296V14.9258C25.0779 19.1312 26.7146 23.0866 29.6879 26.0599L40.2992 36.6712C44.2455 40.6129 46.4141 45.8595 46.4141 51.4379V56.4207C46.4187 61.9082 41.9678 66.3637 36.4757 66.3637Z" fill="#199A8E"/>
</svg>
