<svg width="40" height="42" viewBox="0 0 40 42" fill="none" xmlns="http://www.w3.org/2000/svg">
<path d="M21.9823 42H18.0122C14.7024 42 12.02 39.1831 12.02 35.7073V31.4432C12.02 30.3038 11.1405 29.3773 10.0527 29.3773H5.99219C2.68237 29.3773 0 26.5604 0 23.0846V18.9154C0 15.4396 2.68237 12.6227 5.99219 12.6227H8.32112C9.17597 12.6227 9.86917 13.3507 9.86917 14.2484C9.86917 15.1461 9.17597 15.8741 8.32112 15.8741H5.99219C4.39208 15.8741 3.09336 17.2379 3.09336 18.9183V23.0875C3.09336 24.7678 4.39208 26.1317 5.99219 26.1317H10.0527C12.8475 26.1317 15.1161 28.5112 15.1161 31.4489V35.7131C15.1161 37.3934 16.4148 38.7573 18.0149 38.7573H21.9851C23.5852 38.7573 24.8839 37.3934 24.8839 35.7131V32.5596C24.8839 29.8981 23.8975 27.3948 22.1056 25.5131L15.7107 18.7945C13.3352 16.2971 12.0255 12.9795 12.0255 9.44907V6.29266C12.0255 2.81688 14.7079 0 18.0177 0H21.9878C25.2976 0 27.98 2.81688 27.98 6.29266V10.5568C27.98 11.6962 28.8595 12.6227 29.9473 12.6227H34.0078C37.3176 12.6227 40 15.4396 40 18.9154V23.0846C40 26.5604 37.3176 29.3773 34.0078 29.3773H31.6816C30.8268 29.3773 30.1336 28.6493 30.1336 27.7516C30.1336 26.8539 30.8268 26.1259 31.6816 26.1259H34.0078C35.6079 26.1259 36.9066 24.7621 36.9066 23.0817V18.9125C36.9066 17.2322 35.6079 15.8683 34.0078 15.8683H29.9418C27.1471 15.8683 24.8812 13.4888 24.8812 10.554V6.29266C24.8812 4.61232 23.5824 3.24848 21.9823 3.24848H18.0122C16.4121 3.24848 15.1134 4.60944 15.1134 6.29266V9.44619C15.1134 12.1077 16.0997 14.6109 17.8916 16.4927L24.2866 23.2083C26.6648 25.703 27.9718 29.0234 27.9718 32.5538V35.7073C27.9745 39.1802 25.2921 42 21.9823 42Z" fill="#199A8E"/>
</svg>
